<?xml version="1.0" encoding="UTF-8"?>
<svg version="1.1" xmlns="http://www.w3.org/2000/svg" width="564" height="125">
<path d="M0 0 C0.66 0.66 1.32 1.32 2 2 C2.33 0.02 2.66 -1.96 3 -4 C8.61 -4 14.22 -4 20 -4 C20.04532259 4.8410423 20.08195727 13.68200646 20.10362434 22.523139 C20.11402745 26.62915833 20.12812263 30.73509353 20.15087891 34.84106445 C20.1727319 38.80923341 20.1845947 42.77732182 20.18975449 46.74554634 C20.19342801 48.25368071 20.20060103 49.76181106 20.21146011 51.26991081 C20.30288903 64.50298516 19.48109088 75.45802092 10.40234375 85.82421875 C2.495726 93.24485054 -7.44471952 95.10412114 -18 95 C-27.04582166 94.26690881 -36.52592257 90.47407743 -43 84 C-48 77.16666667 -48 77.16666667 -48 73 C-42.72 71.02 -37.44 69.04 -32 67 C-30.60026042 69.01822917 -29.20052083 71.03645833 -27.80078125 73.0546875 C-24.96124276 76.12212821 -22.22150865 76.85688046 -18.1328125 77.3359375 C-11.52170462 77.42179604 -7.22340309 77.22317696 -2 73 C1.47253841 68.18325317 1.34198476 63.69974592 1 58 C0.33613281 58.34933594 -0.32773438 58.69867188 -1.01171875 59.05859375 C-1.89472656 59.51363281 -2.77773437 59.96867187 -3.6875 60.4375 C-4.55761719 60.88996094 -5.42773438 61.34242187 -6.32421875 61.80859375 C-13.60823037 65.0518398 -22.00818435 64.45879544 -29.56640625 62.25 C-31.82832234 61.30589589 -33.89068294 60.24714374 -36 59 C-37.04800781 58.38318359 -37.04800781 58.38318359 -38.1171875 57.75390625 C-44.78707147 53.31151183 -49.0764968 46.78667733 -51.375 39.125 C-53.51289488 28.1930839 -52.13808584 17.758245 -46.3125 8.25 C-40.64462503 0.3289698 -33.37661926 -3.2995682 -24.1875 -5.75 C-15.05179535 -6.46652585 -7.79564905 -4.89707113 0 0 Z M-29.75 16.8125 C-33.75981092 22.49306547 -34.41429491 26.82359985 -33.5390625 33.6015625 C-32.26024456 39.29137564 -28.65825912 42.77505138 -24 46 C-18.72692318 47.75769227 -12.84310587 48.11776267 -7.60546875 46.05859375 C-2.88804402 43.2666485 -0.27295841 40.35598125 1.6875 35.1875 C2.70652167 28.05434831 2.17695361 22.95979966 -2 17 C-6.10678843 12.76749356 -9.36924984 10.84640574 -15.25 10.75 C-21.72633724 10.83454748 -25.16423403 12.12251208 -29.75 16.8125 Z " fill="#CAA155" transform="translate(176,30)"/>
<path d="M0 0 C5.94 0 11.88 0 18 0 C18.495 19.8 18.495 19.8 19 40 C24.33452656 34.07274826 29.46681718 28.2545989 34.4609375 22.078125 C38.08169826 17.68864888 41.82194764 13.40601731 45.57128906 9.1262207 C46.10206055 8.51866943 46.63283203 7.91111816 47.1796875 7.28515625 C47.88714111 6.47896851 47.88714111 6.47896851 48.60888672 5.65649414 C50.08545867 3.98002645 50.08545867 3.98002645 51.34350586 1.8190918 C53 0 53 0 55.4519043 -0.45410156 C56.39976807 -0.4331543 57.34763184 -0.41220703 58.32421875 -0.390625 C59.86625977 -0.37128906 59.86625977 -0.37128906 61.43945312 -0.3515625 C62.51130859 -0.31804688 63.58316406 -0.28453125 64.6875 -0.25 C65.77095703 -0.23195313 66.85441406 -0.21390625 67.97070312 -0.1953125 C70.64802146 -0.14813508 73.32356909 -0.08232249 76 0 C74.71076019 2.78823237 73.31380469 4.98996602 71.27734375 7.28515625 C70.47623169 8.196604 70.47623169 8.196604 69.65893555 9.12646484 C69.09086182 9.76535645 68.52278809 10.40424805 67.9375 11.0625 C63.94225993 15.60818067 59.99416181 20.16991276 56.1875 24.875 C52.26773136 29.71664015 48.17347264 34.37678858 44 39 C47.25303637 45.7880503 50.84901522 52.20640545 54.875 58.5625 C60.10144723 66.91071283 65.23996788 75.30769284 70.3125 83.75 C70.97685059 84.85158447 71.64120117 85.95316895 72.32568359 87.08813477 C72.93621582 88.10576904 73.54674805 89.12340332 74.17578125 90.171875 C74.72145752 91.0803418 75.26713379 91.98880859 75.8293457 92.92480469 C77 95 77 95 77 96 C69.72654623 97.61975639 62.09091868 98.80162246 55 96 C48.70387748 90.12171578 45.20023983 81.83368571 41.54394531 74.1640625 C39.47246506 69.91890372 37.06323367 65.93917755 34.5625 61.9375 C33.85298657 60.76060745 33.14563444 59.58240648 32.44140625 58.40234375 C31.96574219 57.60957031 31.49007813 56.81679688 31 56 C29.8433243 57.12162492 28.69422886 58.25168083 27.57446289 59.41015625 C26 61 26 61 24.14233398 62.62109375 C19.87349568 66.71020885 18.51992545 69.76091476 18.09765625 75.6875 C18.0515491 78.12459206 18.04062233 80.56257001 18.0625 83 C18.04638672 84.25167969 18.03027344 85.50335938 18.01367188 86.79296875 C17.9785328 89.86178138 17.98508136 92.93102246 18 96 C12.06 96 6.12 96 0 96 C0 64.32 0 32.64 0 0 Z " fill="#D3AC63" transform="translate(286,0)"/>
<path d="M0 0 C5.26615397 5.01349012 7.37846784 10.90205992 7.64160156 18.10766602 C7.64097634 20.26068331 7.61886011 22.41377426 7.578125 24.56640625 C7.57246521 25.70786606 7.56680542 26.84932587 7.56097412 28.02537537 C7.53872749 31.64235808 7.48855107 35.25832076 7.4375 38.875 C7.41741995 41.33917832 7.39917183 43.80337229 7.3828125 46.26757812 C7.33890079 52.28294029 7.26995308 58.29754768 7.1875 64.3125 C1.5775 64.3125 -4.0325 64.3125 -9.8125 64.3125 C-10.1425 62.9925 -10.4725 61.6725 -10.8125 60.3125 C-11.40417969 60.66183594 -11.99585938 61.01117188 -12.60546875 61.37109375 C-13.39566406 61.82613281 -14.18585938 62.28117187 -15 62.75 C-15.77730469 63.20246094 -16.55460937 63.65492187 -17.35546875 64.12109375 C-25.02807227 67.84151358 -34.73953592 67.29074261 -42.6875 64.75 C-47.72053298 62.71351267 -50.99154782 59.95307401 -53.8125 55.3125 C-55.84400819 49.21797543 -55.63686137 41.97955149 -53.75 35.875 C-45.04674971 24.36424961 -32.35607302 22.40838821 -18.83398438 20.52929688 C-16.15178768 20.241641 -13.50656786 20.22670166 -10.8125 20.3125 C-11.6859507 14.74238307 -11.6859507 14.74238307 -14.8125 10.3125 C-19.80651231 8.64782923 -24.87449156 8.29486579 -29.91015625 10.0390625 C-33.79754841 12.06942019 -35.95521018 14.37941567 -37.8125 18.3125 C-43.29182789 16.76704854 -47.92679181 14.15706788 -52.8125 11.3125 C-49.68942839 3.57271384 -45.18373887 -1.02625098 -37.66015625 -4.75390625 C-24.8278745 -9.85233681 -10.97200056 -8.35078267 0 0 Z M-21.5625 35 C-22.47 35.14888672 -23.3775 35.29777344 -24.3125 35.45117188 C-29.89773615 36.49227949 -33.26105311 37.54800747 -36.8125 42.3125 C-37.64599951 45.35590127 -37.64599951 45.35590127 -36.8125 48.3125 C-34.63452763 51.071265 -32.94517929 52.12780354 -29.46484375 52.6953125 C-23.74444526 52.95415406 -20.23376048 52.20741995 -15.8125 48.3125 C-12.47608243 44.52521519 -10.66863751 42.23197421 -10.75 37.1875 C-10.770625 35.90875 -10.79125 34.63 -10.8125 33.3125 C-14.37612664 33.3125 -18.06948717 34.3633545 -21.5625 35 Z " fill="#CFA75D" transform="translate(262.8125,31.6875)"/>
<path d="M0 0 C6.88672069 5.31606509 11.66041731 14.08125288 13.53125 22.5 C14.87311561 33.90585771 12.99737826 44.15520723 5.9296875 53.4296875 C-1.1316789 61.30897279 -9.43134902 66.16529181 -20.07421875 66.890625 C-32.47643701 67.07189981 -41.88604479 64.43938196 -51.0703125 55.8359375 C-58.61996941 47.77226139 -61.51448628 38.71863221 -61.3671875 27.7890625 C-60.51006332 18.06682541 -57.11587043 9.5299205 -50.09375 2.6875 C-35.18831729 -9.51029116 -16.27393455 -10.20157091 0 0 Z M-38.90625 16.25 C-42.56788654 21.05135122 -43.31113533 27.25824635 -42.9375 33.15234375 C-41.79136445 39.59935621 -38.84930757 44.32559351 -33.90625 48.5625 C-28.38130204 50.77247918 -22.58951346 51.47409056 -16.84375 49.6875 C-11.68817325 47.41236694 -8.36616023 43.32382941 -5.953125 38.32421875 C-3.96813591 32.23391131 -4.04346367 25.11333587 -6.71875 19.25 C-9.4235583 14.62968689 -12.9569067 11.3997811 -18.09375 9.6875 C-27.21315524 8.8016979 -32.0893979 10.03909031 -38.90625 16.25 Z " fill="#D0A85F" transform="translate(427.09375,31.3125)"/>
<path d="M0 0 C5.65644466 5.73983205 6.40403809 11.84513688 6.40238953 19.56126404 C6.38690567 20.68444534 6.37142181 21.80762665 6.35546875 22.96484375 C6.35122391 24.1313295 6.34697906 25.29781525 6.34260559 26.49964905 C6.32587522 30.20833874 6.28823221 33.91647582 6.25 37.625 C6.23494593 40.1464765 6.22125879 42.66796156 6.20898438 45.18945312 C6.17598997 51.35568017 6.12424553 57.52149653 6.0625 63.6875 C0.4525 63.6875 -5.1575 63.6875 -10.9375 63.6875 C-11.2675 62.3675 -11.5975 61.0475 -11.9375 59.6875 C-12.54078125 60.03683594 -13.1440625 60.38617188 -13.765625 60.74609375 C-14.56484375 61.20113281 -15.3640625 61.65617187 -16.1875 62.125 C-16.97640625 62.57746094 -17.7653125 63.02992187 -18.578125 63.49609375 C-25.76086452 67.12313937 -35.29492892 66.78175609 -42.875 64.5 C-48.29347498 62.36243648 -51.76269717 59.64550472 -54.8125 54.5625 C-57.06801043 48.36322283 -57.03194686 41.3316941 -54.3125 35.3125 C-49.79975831 27.66113866 -43.21496697 24.95291201 -34.9375 22.6875 C-26.96533963 20.89143815 -19.12532131 19.47315913 -10.9375 19.6875 C-11.33761982 18.41136027 -11.75842088 17.14169633 -12.1875 15.875 C-12.53554687 14.81345703 -12.53554687 14.81345703 -12.890625 13.73046875 C-14.21402768 11.14785829 -15.417418 10.11996766 -17.9375 8.6875 C-23.13374779 7.81622582 -27.63859807 8.04985724 -32.375 10.375 C-34.89212975 12.64655612 -36.95393043 14.94101905 -38.9375 17.6875 C-43.9098422 16.19579734 -48.35595739 14.08292583 -52.9375 11.6875 C-52.0865024 5.77152871 -49.37698299 2.55975773 -44.9375 -1.3125 C-31.23839362 -9.91383337 -12.66202531 -11.78786875 0 0 Z M-22.75 34.375 C-23.65298828 34.52388672 -24.55597656 34.67277344 -25.48632812 34.82617188 C-31.02120258 35.86319831 -34.47743918 36.90277154 -37.9375 41.6875 C-38.19161568 45.32575863 -38.19161568 45.32575863 -36.9375 48.6875 C-34.1124919 51.36907502 -32.05577914 52.13822256 -28.1875 52.1875 C-22.69892008 52.01724863 -19.05277739 50.25869024 -14.9375 46.6875 C-11.38255116 42.55917232 -11.26901806 37.93463075 -10.9375 32.6875 C-14.91843827 32.6875 -18.84576587 33.65688506 -22.75 34.375 Z " fill="#CFA75D" transform="translate(105.9375,32.3125)"/>
<path d="M0 0 C4.88509193 4.94102809 7.12981334 9.31007591 7.11352539 16.29760742 C7.11344986 17.37850143 7.11337433 18.45939545 7.11329651 19.57304382 C7.10813522 20.73874405 7.10297394 21.90444427 7.09765625 23.10546875 C7.0962413 24.29981033 7.09482635 25.49415192 7.09336853 26.72468567 C7.0877635 30.54564908 7.07521011 34.36655425 7.0625 38.1875 C7.05748565 40.77538978 7.05292263 43.36328048 7.04882812 45.95117188 C7.03779242 52.30080375 7.02052437 58.65039199 7 65 C1.72 65 -3.56 65 -9 65 C-9.33 63.35 -9.66 61.7 -10 60 C-11.010625 60.78375 -12.02125 61.5675 -13.0625 62.375 C-20.41322068 67.53365686 -28.26314606 67.71277177 -37 67 C-39.98996347 66.30154453 -42.19494781 65.35243588 -45 64 C-45.9075 63.566875 -46.815 63.13375 -47.75 62.6875 C-51.76423768 59.67682174 -54.04574204 55.88139651 -55 51 C-55.69949593 43.72255193 -54.19769472 38.69212713 -50.4375 32.375 C-43.95641171 26.06009346 -35.43494956 24.06540065 -26.75 22.6875 C-25.79609375 22.51927734 -24.8421875 22.35105469 -23.859375 22.17773438 C-19.19466277 21.38408542 -14.74957938 20.78483449 -10 21 C-10.7889883 17.2702371 -11.5481367 14.56847318 -13.9375 11.5625 C-18.58300074 9.19234656 -22.88948429 9.25596904 -28 10 C-32.47559406 12.19710981 -35.09883067 14.98299631 -38 19 C-42.9723422 17.50829734 -47.41845739 15.39542583 -52 13 C-51.18017345 7.09724885 -48.2797692 3.96661536 -44 0 C-30.84679195 -9.67648208 -13.26542443 -9.25402363 0 0 Z M-21.3125 35.75 C-22.75786133 35.98589844 -22.75786133 35.98589844 -24.23242188 36.2265625 C-29.79498215 37.20038431 -29.79498215 37.20038431 -34.609375 39.98828125 C-36.3180945 42.4601648 -36.92642806 43.98355031 -37 47 C-35.24886475 50.71261227 -35.24886475 50.71261227 -32 53 C-25.15577297 53.76325018 -20.51464372 53.19112923 -15 49 C-10.85746888 44.31239899 -10.2678321 40.02622231 -10 34 C-13.74348086 34 -17.63851617 35.09922163 -21.3125 35.75 Z " fill="#CFA75D" transform="translate(556,31)"/>
<path d="M0 0 C5.94 0 11.88 0 18 0 C18 5.28 18 10.56 18 16 C23.28 16 28.56 16 34 16 C34 21.28 34 26.56 34 32 C28.72 32 23.44 32 18 32 C18.09703318 36.6269504 18.19982042 41.25302517 18.31738281 45.87939453 C18.35561829 47.45255765 18.39048066 49.02580658 18.421875 50.59912109 C18.46764422 52.86326723 18.52561761 55.12682547 18.5859375 57.390625 C18.59748871 58.09181458 18.60903992 58.79300415 18.62094116 59.51544189 C18.72935744 63.11873079 18.87063025 66.01214557 21 69 C25.71291656 71.19205421 28.52161041 71 34 71 C34 76.28 34 81.56 34 87 C14.04106776 87.49897331 14.04106776 87.49897331 8.078125 82.3359375 C-1.23992055 72.67135306 -0.38853313 61.52166794 -0.1875 48.9375 C-0.17242751 47.29232994 -0.15874364 45.64714655 -0.14648438 44.00195312 C-0.11367782 40.00096859 -0.06203766 36.00063369 0 32 C-3.96 32 -7.92 32 -12 32 C-12 26.72 -12 21.44 -12 16 C-8.58203125 14.97460938 -8.58203125 14.97460938 -5.1640625 13.94921875 C-2.66815371 13.08631815 -2.66815371 13.08631815 -1 10 C-0.54398739 7.49103314 -0.54398739 7.49103314 -0.375 4.8125 C-0.25125 3.224375 -0.1275 1.63625 0 0 Z " fill="#D2AB62" transform="translate(458,10)"/>
<path d="M0 0 C6.27 0 12.54 0 19 0 C19.06796832 9.23218903 19.1229267 18.46420995 19.15543652 27.69659328 C19.17104516 31.98426602 19.19219488 36.27175764 19.22631836 40.55932617 C19.25908417 44.70256882 19.27688907 48.84563803 19.28463173 52.98900032 C19.2901445 54.56413564 19.30090913 56.13926223 19.31719017 57.71432304 C19.43246681 69.33610835 19.04730164 79.66505339 10.46875 88.59375 C1.74161029 96.68618864 -6.68009705 96.30321169 -18 96 C-18 90.72 -18 85.44 -18 80 C-16.288125 79.7525 -14.57625 79.505 -12.8125 79.25 C-8.2131231 78.42128344 -5.28546788 77.50449907 -2 74 C-0.53349044 71.06698088 -0.83461526 68.43845139 -0.79467773 65.16357422 C-0.78477814 64.46102509 -0.77487854 63.75847595 -0.76467896 63.03463745 C-0.7330432 60.70802197 -0.70829841 58.38138606 -0.68359375 56.0546875 C-0.66302601 54.44328271 -0.64202958 52.83188334 -0.62062073 51.2204895 C-0.56538146 46.97577294 -0.51598039 42.73100753 -0.46777344 38.48620605 C-0.41757194 34.15612432 -0.36187883 29.82611365 -0.30664062 25.49609375 C-0.19903635 16.99745424 -0.0981038 8.49875449 0 0 Z " fill="#D1AA61" transform="translate(18,0)"/>
</svg>
